<svg xmlns="http://www.w3.org/2000/svg" xmlns:xlink="http://www.w3.org/1999/xlink" viewBox="0 0 500 500"><defs><clipPath id="freepik--clip-path--inject-14"><path d="M357.8,350.13V331.29H301.14v18.84a27,27,0,0,1-6,16.93l-2.48,3.07H366.3l-2.48-3.07A26.91,26.91,0,0,1,357.8,350.13Z" style="fill:#fff;stroke:#263238;stroke-linecap:round;stroke-linejoin:round"></path></clipPath><clipPath id="freepik--clip-path-2--inject-14"><rect x="227.05" y="180.4" width="204.84" height="118.15" style="fill:#263238;stroke:#fff;stroke-linecap:round;stroke-linejoin:round"></rect></clipPath><clipPath id="freepik--clip-path-3--inject-14"><rect x="148.56" y="253.9" width="170.07" height="96.11" style="fill:#263238;stroke:#263238;stroke-linecap:round;stroke-linejoin:round"></rect></clipPath><clipPath id="freepik--clip-path-4--inject-14"><rect x="109.36" y="271.35" width="58.69" height="98.53" rx="7.39" style="fill:#263238;stroke:#263238;stroke-linecap:round;stroke-linejoin:round"></rect></clipPath><clipPath id="freepik--clip-path-5--inject-14"><rect x="75.12" y="308.88" width="35.01" height="56.64" style="fill:#263238;stroke:#263238;stroke-linecap:round;stroke-linejoin:round"></rect></clipPath></defs><g id="freepik--background-simple--inject-14"><path d="M447.39,296.8S467.52,190.35,412.69,130c-48.4-53.31-125-74-187.48-30C203,115.7,186.75,146.2,160.75,155.62,131.6,166.19,94.13,170,67.06,215.26S49.71,318.69,85.8,349.65s99.25.75,156.16-1.51S417.55,428.16,447.39,296.8Z" style="fill:#92E3A9"></path><path d="M447.39,296.8S467.52,190.35,412.69,130c-48.4-53.31-125-74-187.48-30C203,115.7,186.75,146.2,160.75,155.62,131.6,166.19,94.13,170,67.06,215.26S49.71,318.69,85.8,349.65s99.25.75,156.16-1.51S417.55,428.16,447.39,296.8Z" style="fill:#fff;opacity:0.8"></path></g><g id="freepik--Floor--inject-14"><line x1="35.8" y1="373.49" x2="465.83" y2="373.49" style="fill:none;stroke:#263238;stroke-linecap:round;stroke-linejoin:round;stroke-width:3px"></line></g><g id="freepik--Plants--inject-14"><path d="M163.16,185c-4.1-1.93-8-3.51-10.34-7.69-1.82-3.3-2.52-7.88,1.73-9.57,5.75-2.28,10.8,5.17,12.29,9.84.92,2.86,1.91,6.79,2.5,9.22,0-2.69,0-4.91-.1-6.37v0a0,0,0,0,0,0,0c0-.71-.07-1.24-.09-1.55a39.29,39.29,0,0,0-2.5-5.78c-1.89-4.12-3.9-7.87-3-12.54.73-3.7,3.14-7.66,7.48-6.22,5.87,2,4.94,10.9,3.09,15.44-1.31,3.19-3.45,7.54-4.46,9.56.09,1.44.24,4.64.14,8.69a37.42,37.42,0,0,0,3-5.74c2-4.05,3.67-8,7.89-10.18,3.34-1.75,7.93-2.36,9.53,1.92,2.17,5.79-5.37,10.69-10.07,12.09-3.4,1-8.3,2.12-10.42,2.58a89.52,89.52,0,0,1-1.18,12.4c0,.24-.09.49-.14.73a36.39,36.39,0,0,0,4.42-4.84c3-3.43,5.52-6.82,10.16-7.93,3.66-.87,8.27-.33,8.76,4.21.67,6.15-7.84,9-12.74,9.24-3.54.15-8.55,0-10.73-.06-.44,2-1.13,4.36-1.9,7s-1.65,5.58-2.42,8.76v0c1.41,0,4.82-4.5,5.61-5.41,3-3.44,5.52-6.83,10.16-7.93,3.66-.88,8.27-.34,8.76,4.21.67,6.14-7.84,9-12.74,9.24-4.57.19-11.59-.1-11.79-.11l.08.2a1.2,1.2,0,0,0-.11-.17,81.43,81.43,0,0,0-2,11.27c1.72-.29,5.42-3.15,6.32-3.76,3.75-2.54,7.12-5.14,11.88-5,3.77.12,8.07,1.85,7.35,6.37-1,6.1-9.94,6.66-14.72,5.57-3.78-.86-9.19-2.52-10.85-3a59,59,0,0,0,.21,13.43c1.82-.5,5.21-3.12,6.06-3.7,3.75-2.54,7.12-5.14,11.88-5,3.77.12,8.07,1.85,7.36,6.36-1,6.11-9.94,6.67-14.72,5.58-3.57-.81-8.58-2.33-10.53-2.94A54.94,54.94,0,0,0,168,260.89l-.54.27a55.55,55.55,0,0,1-5.64-17.6c-1.43-.66-6.43.56-7.56.75-4.46.78-8.59,1.78-12.88-.31-3.39-1.65-6.6-5-4.11-8.81,3.38-5.18,11.8-2,15.72.93,3.25,2.45,7.77,6.43,8.82,7.37,0-.11,0-.22,0-.32l-.18-.06a.52.52,0,0,0,.18,0,58.28,58.28,0,0,1-.21-13.61c-1.52-.8-6.29-.6-7.38-.62-4.53-.1-8.78.08-12.58-2.8-3-2.27-5.52-6.17-2.33-9.44,4.32-4.43,12,.31,15.24,4,2.57,2.87,6,7.29,7.06,8.71a81.85,81.85,0,0,1,2.06-11.57c-1.61-1-5.67-1.94-6.64-2.22-4.35-1.25-8.51-2.18-11.44-5.93-2.33-3-3.76-7.37.16-9.72,5.31-3.18,11.49,3.36,13.72,7.72,1.56,3.07,3.46,7.5,4.33,9.59.73-2.88,1.52-5.56,2.23-8,.76-2.57,1.43-4.86,1.88-6.85h-.46a1.28,1.28,0,0,0,.49-.13l0-.1c-1.34-1.07-6.07-1.75-7.14-2-4.44-.94-8.65-1.55-11.85-5.08-2.53-2.79-4.28-7.08-.54-9.71,5.06-3.55,11.7,2.52,14.24,6.71,2,3.28,4.52,8.24,5.33,9.86.07-.34.14-.67.19-1a90.74,90.74,0,0,0,1.17-12.17l-.43.1a1.18,1.18,0,0,0,.43-.24c0-.15,0-.3,0-.44C167.87,186.91,164.06,185.39,163.16,185Z" style="fill:#92E3A9"></path><path d="M163.16,185c-4.1-1.93-8-3.51-10.34-7.69-1.82-3.3-2.52-7.88,1.73-9.57,5.75-2.28,10.8,5.17,12.29,9.84.92,2.86,1.91,6.79,2.5,9.22,0-2.69,0-4.91-.1-6.37v0a0,0,0,0,0,0,0c0-.71-.07-1.24-.09-1.55a39.29,39.29,0,0,0-2.5-5.78c-1.89-4.12-3.9-7.87-3-12.54.73-3.7,3.14-7.66,7.48-6.22,5.87,2,4.94,10.9,3.09,15.44-1.31,3.19-3.45,7.54-4.46,9.56.09,1.44.24,4.64.14,8.69a37.42,37.42,0,0,0,3-5.74c2-4.05,3.67-8,7.89-10.18,3.34-1.75,7.93-2.36,9.53,1.92,2.17,5.79-5.37,10.69-10.07,12.09-3.4,1-8.3,2.12-10.42,2.58a89.52,89.52,0,0,1-1.18,12.4c0,.24-.09.49-.14.73a36.39,36.39,0,0,0,4.42-4.84c3-3.43,5.52-6.82,10.16-7.93,3.66-.87,8.27-.33,8.76,4.21.67,6.15-7.84,9-12.74,9.24-3.54.15-8.55,0-10.73-.06-.44,2-1.13,4.36-1.9,7s-1.65,5.58-2.42,8.76v0c1.41,0,4.82-4.5,5.61-5.41,3-3.44,5.52-6.83,10.16-7.93,3.66-.88,8.27-.34,8.76,4.21.67,6.14-7.84,9-12.74,9.24-4.57.19-11.59-.1-11.79-.11l.08.2a1.2,1.2,0,0,0-.11-.17,81.43,81.43,0,0,0-2,11.27c1.72-.29,5.42-3.15,6.32-3.76,3.75-2.54,7.12-5.14,11.88-5,3.77.12,8.07,1.85,7.35,6.37-1,6.1-9.94,6.66-14.72,5.57-3.78-.86-9.19-2.52-10.85-3a59,59,0,0,0,.21,13.43c1.82-.5,5.21-3.12,6.06-3.7,3.75-2.54,7.12-5.14,11.88-5,3.77.12,8.07,1.85,7.36,6.36-1,6.11-9.94,6.67-14.72,5.58-3.57-.81-8.58-2.33-10.53-2.94A54.94,54.94,0,0,0,168,260.89l-.54.27a55.55,55.55,0,0,1-5.64-17.6c-1.43-.66-6.43.56-7.56.75-4.46.78-8.59,1.78-12.88-.31-3.39-1.65-6.6-5-4.11-8.81,3.38-5.18,11.8-2,15.72.93,3.25,2.45,7.77,6.43,8.82,7.37,0-.11,0-.22,0-.32l-.18-.06a.52.52,0,0,0,.18,0,58.28,58.28,0,0,1-.21-13.61c-1.52-.8-6.29-.6-7.38-.62-4.53-.1-8.78.08-12.58-2.8-3-2.27-5.52-6.17-2.33-9.44,4.32-4.43,12,.31,15.24,4,2.57,2.87,6,7.29,7.06,8.71a81.85,81.85,0,0,1,2.06-11.57c-1.61-1-5.67-1.94-6.64-2.22-4.35-1.25-8.51-2.18-11.44-5.93-2.33-3-3.76-7.37.16-9.72,5.31-3.18,11.49,3.36,13.72,7.72,1.56,3.07,3.46,7.5,4.33,9.59.73-2.88,1.52-5.56,2.23-8,.76-2.57,1.43-4.86,1.88-6.85h-.46a1.28,1.28,0,0,0,.49-.13l0-.1c-1.34-1.07-6.07-1.75-7.14-2-4.44-.94-8.65-1.55-11.85-5.08-2.53-2.79-4.28-7.08-.54-9.71,5.06-3.55,11.7,2.52,14.24,6.71,2,3.28,4.52,8.24,5.33,9.86.07-.34.14-.67.19-1a90.74,90.74,0,0,0,1.17-12.17l-.43.1a1.18,1.18,0,0,0,.43-.24c0-.15,0-.3,0-.44C167.87,186.91,164.06,185.39,163.16,185Z" style="fill:#fff;opacity:0.5"></path><path d="M84.36,239.51c-3.53,2.36-6,4.29-10,4.49-3.17.16-7.39-.18-7.63-4.19-.32-5.43,6.94-6.06,11.5-5.48,2.8.36,6.66,1,9.56,1.72-2-.86-4.11-1.68-6.19-2.39,0,0,.05,0,0,0s.1,0-.07,0-1.28-.43-1.5-.48a41.13,41.13,0,0,0-6.12-.29c-4.4-.05-8.32.29-11.73-1.66-2.7-1.55-4.34-4.28-2-7,3.15-3.63,8.7-.49,12.28,2.12,2.53,1.83,5.73,4.36,8.21,6.49,2.88.95,5.75,2.1,8.45,3.24-.76-1.14-3.77-3.58-4.43-4.2-3.24-3-7-5.11-7.49-9.42-.4-3.42,1.61-6.17,5.47-5.66,5.22.7,7.89,6.56,7.87,11.25a76.93,76.93,0,0,1-.73,8.37,84.62,84.62,0,0,1,10.87,5.9,5.57,5.57,0,0,0,.54.36c-.24-1.28-2.22-4-2.65-4.78-2.09-3.76-4.54-6.21-4.09-10.48.35-3.37,3.11-5.55,6.72-4,4.87,2.08,5.72,8,4.18,12.38-1.11,3.18-2.21,4.63-3.66,7.28,1.67,1.43,3.54,2.54,5,4.25s2.63,4,4,5.93c0,0,0,0,0,0,.8-1.49-.39-5.13-.68-6.21-1.09-4-3-6.4-2.42-10.49.47-3.23,3-5.32,6.5-3.55,4.7,2.4,3.62,9.48,1.92,12.64a65.07,65.07,0,0,1-5,7.27c-1,1.46.23,0-.07.36s0-.23-.2.07c1.76,2.61,3.43,5.46,5.25,8,.75-1.27.8-5.06.92-6.05.49-4.12.14-7.31,2.43-10.53,1.8-2.55,5-3.56,7.22-.54,3,4.08-.17,9.61-3.47,12.39a63.74,63.74,0,0,1-7,4.91c2.23,3,4.38,6.08,7.65,8,.59-1.2.7-4.47.82-5.42.55-4.18.63-7.72,3.07-10.88,1.92-2.51,5.09-3.91,7.28-.84,3,4.16-.56,9.42-3.84,12.29a64.19,64.19,0,0,1-7.13,5,51.9,51.9,0,0,0,13.54,4.69c0,.14-.07.29-.1.44a54.66,54.66,0,0,1-13.63-4.67c-1.22.61-2.58,3.46-3.06,4.25-1.92,3.15-3.17,5.42-6.37,6.88-2.54,1.16-6.1,1.31-6.81-2.08-1-4.57,3.78-7.77,7.66-8.36,3.23-.5,5.63-.17,8.51-.76.21,0-.24-.08-.19-.11s-.12.12-.11.07.06-.06.1-.09c-3.28-2.1-5.45-5-7.75-8.1-1.25.43-3.11,3.16-3.69,3.84-2.42,2.84-4,5.21-7.51,6.07-2.73.68-5.8.08-6-3.34-.31-4.63,5-7.27,9-7.5a35.4,35.4,0,0,1,8.13.76c-1.91-2.67-3.56-5.51-5.4-8.2-1.2.35-3.51,2.49-4.2,3-3.08,2.35-5.4,4.45-9.07,4.69-2.9.19-6.4-.52-6.25-4.21.21-5,7.1-6.06,11.26-5.69a31.43,31.43,0,0,1,8,1.76,62.16,62.16,0,0,0-3.67-5.38,51.15,51.15,0,0,0-4.9-4.15c0,.06-.29.24-.18.29s.08-.31.07-.36-.07-.05-.1,0c-1.41.4-3.53,3-4.24,3.74-2.94,2.83-5.09,5.12-8.88,5.87-3,.6-6.9.62-7.69-3.19-1.08-5.16,5.78-7,10.15-7,3.41,0,7.09.2,10.53.46-.24-.18-.51-.37-.76-.53a84.89,84.89,0,0,0-10.63-5.81c0,.07-.15.31,0,.33s0-.35-.11-.39a1,1,0,0,0-.42-.15C87.78,237,85.15,239,84.36,239.51Z" style="fill:#92E3A9"></path><path d="M84.36,239.51c-3.53,2.36-6,4.29-10,4.49-3.17.16-7.39-.18-7.63-4.19-.32-5.43,6.94-6.06,11.5-5.48,2.8.36,6.66,1,9.56,1.72-2-.86-4.11-1.68-6.19-2.39,0,0,.05,0,0,0s.1,0-.07,0-1.28-.43-1.5-.48a41.13,41.13,0,0,0-6.12-.29c-4.4-.05-8.32.29-11.73-1.66-2.7-1.55-4.34-4.28-2-7,3.15-3.63,8.7-.49,12.28,2.12,2.53,1.83,5.73,4.36,8.21,6.49,2.88.95,5.75,2.1,8.45,3.24-.76-1.14-3.77-3.58-4.43-4.2-3.24-3-7-5.11-7.49-9.42-.4-3.42,1.61-6.17,5.47-5.66,5.22.7,7.89,6.56,7.87,11.25a76.93,76.93,0,0,1-.73,8.37,84.62,84.62,0,0,1,10.87,5.9,5.57,5.57,0,0,0,.54.36c-.24-1.28-2.22-4-2.65-4.78-2.09-3.76-4.54-6.21-4.09-10.48.35-3.37,3.11-5.55,6.72-4,4.87,2.08,5.72,8,4.18,12.38-1.11,3.18-2.21,4.63-3.66,7.28,1.67,1.43,3.54,2.54,5,4.25s2.63,4,4,5.93c0,0,0,0,0,0,.8-1.49-.39-5.13-.68-6.21-1.09-4-3-6.4-2.42-10.49.47-3.23,3-5.32,6.5-3.55,4.7,2.4,3.62,9.48,1.92,12.64a65.07,65.07,0,0,1-5,7.27c-1,1.46.23,0-.07.36s0-.23-.2.07c1.76,2.61,3.43,5.46,5.25,8,.75-1.27.8-5.06.92-6.05.49-4.12.14-7.31,2.43-10.53,1.8-2.55,5-3.56,7.22-.54,3,4.08-.17,9.61-3.47,12.39a63.74,63.74,0,0,1-7,4.91c2.23,3,4.38,6.08,7.65,8,.59-1.2.7-4.47.82-5.42.55-4.18.63-7.72,3.07-10.88,1.92-2.51,5.09-3.91,7.28-.84,3,4.16-.56,9.42-3.84,12.29a64.19,64.19,0,0,1-7.13,5,51.9,51.9,0,0,0,13.54,4.69c0,.14-.07.29-.1.44a54.66,54.66,0,0,1-13.63-4.67c-1.22.61-2.58,3.46-3.06,4.25-1.92,3.15-3.17,5.42-6.37,6.88-2.54,1.16-6.1,1.31-6.81-2.08-1-4.57,3.78-7.77,7.66-8.36,3.23-.5,5.63-.17,8.51-.76.21,0-.24-.08-.19-.11s-.12.12-.11.07.06-.06.1-.09c-3.28-2.1-5.45-5-7.75-8.1-1.25.43-3.11,3.16-3.69,3.84-2.42,2.84-4,5.21-7.51,6.07-2.73.68-5.8.08-6-3.34-.31-4.63,5-7.27,9-7.5a35.4,35.4,0,0,1,8.13.76c-1.91-2.67-3.56-5.51-5.4-8.2-1.2.35-3.51,2.49-4.2,3-3.08,2.35-5.4,4.45-9.07,4.69-2.9.19-6.4-.52-6.25-4.21.21-5,7.1-6.06,11.26-5.69a31.43,31.43,0,0,1,8,1.76,62.16,62.16,0,0,0-3.67-5.38,51.15,51.15,0,0,0-4.9-4.15c0,.06-.29.24-.18.29s.08-.31.07-.36-.07-.05-.1,0c-1.41.4-3.53,3-4.24,3.74-2.94,2.83-5.09,5.12-8.88,5.87-3,.6-6.9.62-7.69-3.19-1.08-5.16,5.78-7,10.15-7,3.41,0,7.09.2,10.53.46-.24-.18-.51-.37-.76-.53a84.89,84.89,0,0,0-10.63-5.81c0,.07-.15.31,0,.33s0-.35-.11-.39a1,1,0,0,0-.42-.15C87.78,237,85.15,239,84.36,239.51Z" style="fill:#92E3A9;opacity:0.5"></path><g style="opacity:0.5"><path d="M84.36,239.51c-3.53,2.36-6,4.29-10,4.49-3.17.16-7.39-.18-7.63-4.19-.32-5.43,6.94-6.06,11.5-5.48,2.8.36,6.66,1,9.56,1.72-2-.86-4.11-1.68-6.19-2.39,0,0,.05,0,0,0s.1,0-.07,0-1.28-.43-1.5-.48a41.13,41.13,0,0,0-6.12-.29c-4.4-.05-8.32.29-11.73-1.66-2.7-1.55-4.34-4.28-2-7,3.15-3.63,8.7-.49,12.28,2.12,2.53,1.83,5.73,4.36,8.21,6.49,2.88.95,5.75,2.1,8.45,3.24-.76-1.14-3.77-3.58-4.43-4.2-3.24-3-7-5.11-7.49-9.42-.4-3.42,1.61-6.17,5.47-5.66,5.22.7,7.89,6.56,7.87,11.25a76.93,76.93,0,0,1-.73,8.37,84.62,84.62,0,0,1,10.87,5.9,5.57,5.57,0,0,0,.54.36c-.24-1.28-2.22-4-2.65-4.78-2.09-3.76-4.54-6.21-4.09-10.48.35-3.37,3.11-5.55,6.72-4,4.87,2.08,5.72,8,4.18,12.38-1.11,3.18-2.21,4.63-3.66,7.28,1.67,1.43,3.54,2.54,5,4.25s2.63,4,4,5.93c0,0,0,0,0,0,.8-1.49-.39-5.13-.68-6.21-1.09-4-3-6.4-2.42-10.49.47-3.23,3-5.32,6.5-3.55,4.7,2.4,3.62,9.48,1.92,12.64a65.07,65.07,0,0,1-5,7.27c-1,1.46.23,0-.07.36s0-.23-.2.07c1.76,2.61,3.43,5.46,5.25,8,.75-1.27.8-5.06.92-6.05.49-4.12.14-7.31,2.43-10.53,1.8-2.55,5-3.56,7.22-.54,3,4.08-.17,9.61-3.47,12.39a63.74,63.74,0,0,1-7,4.91c2.23,3,4.38,6.08,7.65,8,.59-1.2.7-4.47.82-5.42.55-4.18.63-7.72,3.07-10.88,1.92-2.51,5.09-3.91,7.28-.84,3,4.16-.56,9.42-3.84,12.29a64.19,64.19,0,0,1-7.13,5,51.9,51.9,0,0,0,13.54,4.69c0,.14-.07.29-.1.44a54.66,54.66,0,0,1-13.63-4.67c-1.22.61-2.58,3.46-3.06,4.25-1.92,3.15-3.17,5.42-6.37,6.88-2.54,1.16-6.1,1.31-6.81-2.08-1-4.57,3.78-7.77,7.66-8.36,3.23-.5,5.63-.17,8.51-.76.21,0-.24-.08-.19-.11s-.12.12-.11.07.06-.06.1-.09c-3.28-2.1-5.45-5-7.75-8.1-1.25.43-3.11,3.16-3.69,3.84-2.42,2.84-4,5.21-7.51,6.07-2.73.68-5.8.08-6-3.34-.31-4.63,5-7.27,9-7.5a35.4,35.4,0,0,1,8.13.76c-1.91-2.67-3.56-5.51-5.4-8.2-1.2.35-3.51,2.49-4.2,3-3.08,2.35-5.4,4.45-9.07,4.69-2.9.19-6.4-.52-6.25-4.21.21-5,7.1-6.06,11.26-5.69a31.43,31.43,0,0,1,8,1.76,62.16,62.16,0,0,0-3.67-5.38,51.15,51.15,0,0,0-4.9-4.15c0,.06-.29.24-.18.29s.08-.31.07-.36-.07-.05-.1,0c-1.41.4-3.53,3-4.24,3.74-2.94,2.83-5.09,5.12-8.88,5.87-3,.6-6.9.62-7.69-3.19-1.08-5.16,5.78-7,10.15-7,3.41,0,7.09.2,10.53.46-.24-.18-.51-.37-.76-.53a84.89,84.89,0,0,0-10.63-5.81c0,.07-.15.31,0,.33s0-.35-.11-.39a1,1,0,0,0-.42-.15C87.78,237,85.15,239,84.36,239.51Z" style="fill:#fff"></path><path d="M84.36,239.51c-3.53,2.36-6,4.29-10,4.49-3.17.16-7.39-.18-7.63-4.19-.32-5.43,6.94-6.06,11.5-5.48,2.8.36,6.66,1,9.56,1.72-2-.86-4.11-1.68-6.19-2.39,0,0,.05,0,0,0s.1,0-.07,0-1.28-.43-1.5-.48a41.13,41.13,0,0,0-6.12-.29c-4.4-.05-8.32.29-11.73-1.66-2.7-1.55-4.34-4.28-2-7,3.15-3.63,8.7-.49,12.28,2.12,2.53,1.83,5.73,4.36,8.21,6.49,2.88.95,5.75,2.1,8.45,3.24-.76-1.14-3.77-3.58-4.43-4.2-3.24-3-7-5.11-7.49-9.42-.4-3.42,1.61-6.17,5.47-5.66,5.22.7,7.89,6.56,7.87,11.25a76.93,76.93,0,0,1-.73,8.37,84.62,84.62,0,0,1,10.87,5.9,5.57,5.57,0,0,0,.54.36c-.24-1.28-2.22-4-2.65-4.78-2.09-3.76-4.54-6.21-4.09-10.48.35-3.37,3.11-5.55,6.72-4,4.87,2.08,5.72,8,4.18,12.38-1.11,3.18-2.21,4.63-3.66,7.28,1.67,1.43,3.54,2.54,5,4.25s2.63,4,4,5.93c0,0,0,0,0,0,.8-1.49-.39-5.13-.68-6.21-1.09-4-3-6.4-2.42-10.49.47-3.23,3-5.32,6.5-3.55,4.7,2.4,3.62,9.48,1.92,12.64a65.07,65.07,0,0,1-5,7.27c-1,1.46.23,0-.07.36s0-.23-.2.07c1.76,2.61,3.43,5.46,5.25,8,.75-1.27.8-5.06.92-6.05.49-4.12.14-7.31,2.43-10.53,1.8-2.55,5-3.56,7.22-.54,3,4.08-.17,9.61-3.47,12.39a63.74,63.74,0,0,1-7,4.91c2.23,3,4.38,6.08,7.65,8,.59-1.2.7-4.47.82-5.42.55-4.18.63-7.72,3.07-10.88,1.92-2.51,5.09-3.91,7.28-.84,3,4.16-.56,9.42-3.84,12.29a64.19,64.19,0,0,1-7.13,5,51.9,51.9,0,0,0,13.54,4.69c0,.14-.07.29-.1.44a54.66,54.66,0,0,1-13.63-4.67c-1.22.61-2.58,3.46-3.06,4.25-1.92,3.15-3.17,5.42-6.37,6.88-2.54,1.16-6.1,1.31-6.81-2.08-1-4.57,3.78-7.77,7.66-8.36,3.23-.5,5.63-.17,8.51-.76.21,0-.24-.08-.19-.11s-.12.12-.11.07.06-.06.1-.09c-3.28-2.1-5.45-5-7.75-8.1-1.25.43-3.11,3.16-3.69,3.84-2.42,2.84-4,5.21-7.51,6.07-2.73.68-5.8.08-6-3.34-.31-4.63,5-7.27,9-7.5a35.4,35.4,0,0,1,8.13.76c-1.91-2.67-3.56-5.51-5.4-8.2-1.2.35-3.51,2.49-4.2,3-3.08,2.35-5.4,4.45-9.07,4.69-2.9.19-6.4-.52-6.25-4.21.21-5,7.1-6.06,11.26-5.69a31.43,31.43,0,0,1,8,1.76,62.16,62.16,0,0,0-3.67-5.38,51.15,51.15,0,0,0-4.9-4.15c0,.06-.29.24-.18.29s.08-.31.07-.36-.07-.05-.1,0c-1.41.4-3.53,3-4.24,3.74-2.94,2.83-5.09,5.12-8.88,5.87-3,.6-6.9.62-7.69-3.19-1.08-5.16,5.78-7,10.15-7,3.41,0,7.09.2,10.53.46-.24-.18-.51-.37-.76-.53a84.89,84.89,0,0,0-10.63-5.81c0,.07-.15.31,0,.33s0-.35-.11-.39a1,1,0,0,0-.42-.15C87.78,237,85.15,239,84.36,239.51Z" style="fill:#fff;opacity:0.5"></path></g><path d="M399.16,139.55c-2-3.78-3.58-6.47-3.34-10.48.2-3.17,1-7.32,5-7.11,5.43.29,5.25,7.57,4.16,12-.67,2.74-1.79,6.5-2.78,9.31,1.08-1.88,2.13-3.89,3.07-5.88,0,0,0,0,0,0s0,.1.05-.07.56-1.22.64-1.43a44,44,0,0,0,1-6.05c.54-4.37.64-8.3,3-11.47,1.83-2.51,4.74-3.83,7.14-1.22,3.26,3.53-.49,8.7-3.48,12-2.11,2.3-5,5.21-7.37,7.43-1.27,2.76-2.74,5.48-4.17,8,1.22-.62,4-3.34,4.67-3.93,3.36-2.88,5.86-6.37,10.2-6.39,3.44,0,5.95,2.3,5,6.07-1.28,5.11-7.4,7.11-12.06,6.57a78.35,78.35,0,0,1-8.24-1.67,83,83,0,0,1-7.08,10.14,6.16,6.16,0,0,0-.41.5c1.3-.1,4.22-1.76,5-2.1,4-1.66,6.68-3.81,10.87-2.89,3.32.73,5.17,3.72,3.24,7.12-2.61,4.61-8.57,4.8-12.77,2.78-3-1.47-4.35-2.72-6.83-4.46a44.92,44.92,0,0,1-4.79,4.54c-1.86,1.3-4.3,2.15-6.33,3.28,0,0,0,0,0,0,1.39,1,5.15.18,6.25,0,4.13-.63,6.7-2.28,10.7-1.23,3.16.83,4.94,3.61,2.8,6.86-2.91,4.4-9.83,2.53-12.78.48a65.35,65.35,0,0,1-6.66-5.83c-1.34-1.14,0,.24-.34-.1s.22.05,0-.21c-2.8,1.45-5.81,2.79-8.51,4.32,1.18.89,4.94,1.36,5.9,1.59,4.05.95,7.26,1,10.2,3.59,2.33,2.08,3,5.42-.27,7.25-4.39,2.47-9.53-1.25-11.93-4.84a64.6,64.6,0,0,1-4.09-7.55c-3.24,1.88-6.53,3.67-8.78,6.71,1.12.72,4.36,1.19,5.29,1.42,4.1,1,7.6,1.49,10.47,4.27,2.28,2.19,3.31,5.49,0,7.33-4.46,2.48-9.3-1.62-11.79-5.19a65.49,65.49,0,0,1-4.19-7.65,52.56,52.56,0,0,0-6.17,12.92l-.43-.14a54.52,54.52,0,0,1,6.17-13c-.47-1.28-3.15-2.95-3.88-3.52-2.92-2.26-5-3.75-6.13-7.1-.86-2.65-.61-6.21,2.83-6.53,4.66-.44,7.31,4.63,7.46,8.55.13,3.26-.47,5.6-.2,8.53,0,.23.11-.22.12-.17s-.1-.13-.05-.12.06.07.08.11c2.45-3,5.62-4.85,8.92-6.79-.29-1.3-2.8-3.44-3.41-4.1-2.55-2.72-4.72-4.61-5.19-8.14-.37-2.79.57-5.78,4-5.62,4.63.21,6.66,5.83,6.43,9.83a35,35,0,0,1-1.66,8c2.87-1.6,5.87-2.92,8.75-4.45-.21-1.23-2.08-3.76-2.52-4.51-2-3.33-3.83-5.87-3.65-9.54.14-2.9,1.23-6.3,4.89-5.74,5,.77,5.22,7.74,4.39,11.82a31.31,31.31,0,0,1-2.66,7.81,58.49,58.49,0,0,0,5.76-3,49.83,49.83,0,0,0,4.68-4.4c-.06,0-.21-.31-.27-.21s.3.12.35.11a.07.07,0,0,0,0-.09c-.23-1.45-2.63-3.86-3.23-4.64-2.48-3.24-4.53-5.63-4.85-9.48-.25-3.05.17-6.92,4-7.29,5.25-.49,6.31,6.54,5.83,10.87-.38,3.4-1,7-1.64,10.42.2-.22.42-.46.61-.7a84,84,0,0,0,7-9.91c-.06,0-.28-.19-.32-.08s.35,0,.4-.06a.94.94,0,0,0,.2-.4C401.3,143.22,399.59,140.38,399.16,139.55Z" style="fill:#92E3A9"></path><path d="M399.16,139.55c-2-3.78-3.58-6.47-3.34-10.48.2-3.17,1-7.32,5-7.11,5.43.29,5.25,7.57,4.16,12-.67,2.74-1.79,6.5-2.78,9.31,1.08-1.88,2.13-3.89,3.07-5.88,0,0,0,0,0,0s0,.1.05-.07.56-1.22.64-1.43a44,44,0,0,0,1-6.05c.54-4.37.64-8.3,3-11.47,1.83-2.51,4.74-3.83,7.14-1.22,3.26,3.53-.49,8.7-3.48,12-2.11,2.3-5,5.21-7.37,7.43-1.27,2.76-2.74,5.48-4.17,8,1.22-.62,4-3.34,4.67-3.93,3.36-2.88,5.86-6.37,10.2-6.39,3.44,0,5.95,2.3,5,6.07-1.28,5.11-7.4,7.11-12.06,6.57a78.35,78.35,0,0,1-8.24-1.67,83,83,0,0,1-7.08,10.14,6.16,6.16,0,0,0-.41.5c1.3-.1,4.22-1.76,5-2.1,4-1.66,6.68-3.81,10.87-2.89,3.32.73,5.17,3.72,3.24,7.12-2.61,4.61-8.57,4.8-12.77,2.78-3-1.47-4.35-2.72-6.83-4.46a44.92,44.92,0,0,1-4.79,4.54c-1.86,1.3-4.3,2.15-6.33,3.28,0,0,0,0,0,0,1.39,1,5.15.18,6.25,0,4.13-.63,6.7-2.28,10.7-1.23,3.16.83,4.94,3.61,2.8,6.86-2.91,4.4-9.83,2.53-12.78.48a65.35,65.35,0,0,1-6.66-5.83c-1.34-1.14,0,.24-.34-.1s.22.05,0-.21c-2.8,1.45-5.81,2.79-8.51,4.32,1.18.89,4.94,1.36,5.9,1.59,4.05.95,7.26,1,10.2,3.59,2.33,2.08,3,5.42-.27,7.25-4.39,2.47-9.53-1.25-11.93-4.84a64.6,64.6,0,0,1-4.09-7.55c-3.24,1.88-6.53,3.67-8.78,6.71,1.12.72,4.36,1.19,5.29,1.42,4.1,1,7.6,1.49,10.47,4.27,2.28,2.19,3.31,5.49,0,7.33-4.46,2.48-9.3-1.62-11.79-5.19a65.49,65.49,0,0,1-4.19-7.65,52.56,52.56,0,0,0-6.17,12.92l-.43-.14a54.52,54.52,0,0,1,6.17-13c-.47-1.28-3.15-2.95-3.88-3.52-2.92-2.26-5-3.75-6.13-7.1-.86-2.65-.61-6.21,2.83-6.53,4.66-.44,7.31,4.63,7.46,8.55.13,3.26-.47,5.6-.2,8.53,0,.23.11-.22.12-.17s-.1-.13-.05-.12.06.07.08.11c2.45-3,5.62-4.85,8.92-6.79-.29-1.3-2.8-3.44-3.41-4.1-2.55-2.72-4.72-4.61-5.19-8.14-.37-2.79.57-5.78,4-5.62,4.63.21,6.66,5.83,6.43,9.83a35,35,0,0,1-1.66,8c2.87-1.6,5.87-2.92,8.75-4.45-.21-1.23-2.08-3.76-2.52-4.51-2-3.33-3.83-5.87-3.65-9.54.14-2.9,1.23-6.3,4.89-5.74,5,.77,5.22,7.74,4.39,11.82a31.31,31.31,0,0,1-2.66,7.81,58.49,58.49,0,0,0,5.76-3,49.83,49.83,0,0,0,4.68-4.4c-.06,0-.21-.31-.27-.21s.3.12.35.11a.07.07,0,0,0,0-.09c-.23-1.45-2.63-3.86-3.23-4.64-2.48-3.24-4.53-5.63-4.85-9.48-.25-3.05.17-6.92,4-7.29,5.25-.49,6.31,6.54,5.83,10.87-.38,3.4-1,7-1.64,10.42.2-.22.42-.46.61-.7a84,84,0,0,0,7-9.91c-.06,0-.28-.19-.32-.08s.35,0,.4-.06a.94.94,0,0,0,.2-.4C401.3,143.22,399.59,140.38,399.16,139.55Z" style="fill:#92E3A9;opacity:0.5"></path><g style="opacity:0.5"><path d="M399.16,139.55c-2-3.78-3.58-6.47-3.34-10.48.2-3.17,1-7.32,5-7.11,5.43.29,5.25,7.57,4.16,12-.67,2.74-1.79,6.5-2.78,9.31,1.08-1.88,2.13-3.89,3.07-5.88,0,0,0,0,0,0s0,.1.05-.07.56-1.22.64-1.43a44,44,0,0,0,1-6.05c.54-4.37.64-8.3,3-11.47,1.83-2.51,4.74-3.83,7.14-1.22,3.26,3.53-.49,8.7-3.48,12-2.11,2.3-5,5.21-7.37,7.43-1.27,2.76-2.74,5.48-4.17,8,1.22-.62,4-3.34,4.67-3.93,3.36-2.88,5.86-6.37,10.2-6.39,3.44,0,5.95,2.3,5,6.07-1.28,5.11-7.4,7.11-12.06,6.57a78.35,78.35,0,0,1-8.24-1.67,83,83,0,0,1-7.08,10.14,6.16,6.16,0,0,0-.41.5c1.3-.1,4.22-1.76,5-2.1,4-1.66,6.68-3.81,10.87-2.89,3.32.73,5.17,3.72,3.24,7.12-2.61,4.61-8.57,4.8-12.77,2.78-3-1.47-4.35-2.72-6.83-4.46a44.92,44.92,0,0,1-4.79,4.54c-1.86,1.3-4.3,2.15-6.33,3.28,0,0,0,0,0,0,1.39,1,5.15.18,6.25,0,4.13-.63,6.7-2.28,10.7-1.23,3.16.83,4.94,3.61,2.8,6.86-2.91,4.4-9.83,2.53-12.78.48a65.35,65.35,0,0,1-6.66-5.83c-1.34-1.14,0,.24-.34-.1s.22.05,0-.21c-2.8,1.45-5.81,2.79-8.51,4.32,1.18.89,4.94,1.36,5.9,1.59,4.05.95,7.26,1,10.2,3.59,2.33,2.08,3,5.42-.27,7.25-4.39,2.47-9.53-1.25-11.93-4.84a64.6,64.6,0,0,1-4.09-7.55c-3.24,1.88-6.53,3.67-8.78,6.71,1.12.72,4.36,1.19,5.29,1.42,4.1,1,7.6,1.49,10.47,4.27,2.28,2.19,3.31,5.49,0,7.33-4.46,2.48-9.3-1.62-11.79-5.19a65.49,65.49,0,0,1-4.19-7.65,52.56,52.56,0,0,0-6.17,12.92l-.43-.14a54.52,54.52,0,0,1,6.17-13c-.47-1.28-3.15-2.95-3.88-3.52-2.92-2.26-5-3.75-6.13-7.1-.86-2.65-.61-6.21,2.83-6.53,4.66-.44,7.31,4.63,7.46,8.55.13,3.26-.47,5.6-.2,8.53,0,.23.11-.22.12-.17s-.1-.13-.05-.12.06.07.08.11c2.45-3,5.62-4.85,8.92-6.79-.29-1.3-2.8-3.44-3.41-4.1-2.55-2.72-4.72-4.61-5.19-8.14-.37-2.79.57-5.78,4-5.62,4.63.21,6.66,5.83,6.43,9.83a35,35,0,0,1-1.66,8c2.87-1.6,5.87-2.92,8.75-4.45-.21-1.23-2.08-3.76-2.52-4.51-2-3.33-3.83-5.87-3.65-9.54.14-2.9,1.23-6.3,4.89-5.74,5,.77,5.22,7.74,4.39,11.82a31.31,31.31,0,0,1-2.66,7.81,58.49,58.49,0,0,0,5.76-3,49.83,49.83,0,0,0,4.68-4.4c-.06,0-.21-.31-.27-.21s.3.12.35.11a.07.07,0,0,0,0-.09c-.23-1.45-2.63-3.86-3.23-4.64-2.48-3.24-4.53-5.63-4.85-9.48-.25-3.05.17-6.92,4-7.29,5.25-.49,6.31,6.54,5.83,10.87-.38,3.4-1,7-1.64,10.42.2-.22.42-.46.61-.7a84,84,0,0,0,7-9.91c-.06,0-.28-.19-.32-.08s.35,0,.4-.06a.94.94,0,0,0,.2-.4C401.3,143.22,399.59,140.38,399.16,139.55Z" style="fill:#fff"></path><path d="M399.16,139.55c-2-3.78-3.58-6.47-3.34-10.48.2-3.17,1-7.32,5-7.11,5.43.29,5.25,7.57,4.16,12-.67,2.74-1.79,6.5-2.78,9.31,1.08-1.88,2.13-3.89,3.07-5.88,0,0,0,0,0,0s0,.1.05-.07.56-1.22.64-1.43a44,44,0,0,0,1-6.05c.54-4.37.64-8.3,3-11.47,1.83-2.51,4.74-3.83,7.14-1.22,3.26,3.53-.49,8.7-3.48,12-2.11,2.3-5,5.21-7.37,7.43-1.27,2.76-2.74,5.48-4.17,8,1.22-.62,4-3.34,4.67-3.93,3.36-2.88,5.86-6.37,10.2-6.39,3.44,0,5.95,2.3,5,6.07-1.28,5.11-7.4,7.11-12.06,6.57a78.35,78.35,0,0,1-8.24-1.67,83,83,0,0,1-7.08,10.14,6.16,6.16,0,0,0-.41.5c1.3-.1,4.22-1.76,5-2.1,4-1.66,6.68-3.81,10.87-2.89,3.32.73,5.17,3.72,3.24,7.12-2.61,4.61-8.57,4.8-12.77,2.78-3-1.47-4.35-2.72-6.83-4.46a44.92,44.92,0,0,1-4.79,4.54c-1.86,1.3-4.3,2.15-6.33,3.28,0,0,0,0,0,0,1.39,1,5.15.18,6.25,0,4.13-.63,6.7-2.28,10.7-1.23,3.16.83,4.94,3.61,2.8,6.86-2.91,4.4-9.83,2.53-12.78.48a65.35,65.35,0,0,1-6.66-5.83c-1.34-1.14,0,.24-.34-.1s.22.05,0-.21c-2.8,1.45-5.81,2.79-8.51,4.32,1.18.89,4.94,1.36,5.9,1.59,4.05.95,7.26,1,10.2,3.59,2.33,2.08,3,5.42-.27,7.25-4.39,2.47-9.53-1.25-11.93-4.84a64.6,64.6,0,0,1-4.09-7.55c-3.24,1.88-6.53,3.67-8.78,6.71,1.12.72,4.36,1.19,5.29,1.42,4.1,1,7.6,1.49,10.47,4.27,2.28,2.19,3.31,5.49,0,7.33-4.46,2.48-9.3-1.62-11.79-5.19a65.49,65.49,0,0,1-4.19-7.65,52.56,52.56,0,0,0-6.17,12.92l-.43-.14a54.52,54.52,0,0,1,6.17-13c-.47-1.28-3.15-2.95-3.88-3.52-2.92-2.26-5-3.75-6.13-7.1-.86-2.65-.61-6.21,2.83-6.53,4.66-.44,7.31,4.63,7.46,8.55.13,3.26-.47,5.6-.2,8.53,0,.23.11-.22.12-.17s-.1-.13-.05-.12.06.07.08.11c2.45-3,5.62-4.85,8.92-6.79-.29-1.3-2.8-3.44-3.41-4.1-2.55-2.72-4.72-4.61-5.19-8.14-.37-2.79.57-5.78,4-5.62,4.63.21,6.66,5.83,6.43,9.83a35,35,0,0,1-1.66,8c2.87-1.6,5.87-2.92,8.75-4.45-.21-1.23-2.08-3.76-2.52-4.51-2-3.33-3.83-5.87-3.65-9.54.14-2.9,1.23-6.3,4.89-5.74,5,.77,5.22,7.74,4.39,11.82a31.31,31.31,0,0,1-2.66,7.81,58.49,58.49,0,0,0,5.76-3,49.83,49.83,0,0,0,4.68-4.4c-.06,0-.21-.31-.27-.21s.3.12.35.11a.07.07,0,0,0,0-.09c-.23-1.45-2.63-3.86-3.23-4.64-2.48-3.24-4.53-5.63-4.85-9.48-.25-3.05.17-6.92,4-7.29,5.25-.49,6.31,6.54,5.83,10.87-.38,3.4-1,7-1.64,10.42.2-.22.42-.46.61-.7a84,84,0,0,0,7-9.91c-.06,0-.28-.19-.32-.08s.35,0,.4-.06a.94.94,0,0,0,.2-.4C401.3,143.22,399.59,140.38,399.16,139.55Z" style="fill:#fff;opacity:0.5"></path></g></g><g id="freepik--device-4--inject-14"><path d="M357.8,350.13V331.29H301.14v18.84a27,27,0,0,1-6,16.93l-2.48,3.07H366.3l-2.48-3.07A26.91,26.91,0,0,1,357.8,350.13Z" style="fill:#fff"></path><g style="clip-path:url(#freepik--clip-path--inject-14)"><path d="M297.66,343.46h63.62a26.8,26.8,0,0,1-3.48-13.19V311.43H301.14v18.84A26.91,26.91,0,0,1,297.66,343.46Z" style="fill:#263238"></path></g><path d="M357.8,350.13V331.29H301.14v18.84a27,27,0,0,1-6,16.93l-2.48,3.07H366.3l-2.48-3.07A26.91,26.91,0,0,1,357.8,350.13Z" style="fill:none;stroke:#263238;stroke-linecap:round;stroke-linejoin:round"></path><rect x="215.59" y="170" width="227.75" height="167.23" rx="8.48" style="fill:#263238;stroke:#263238;stroke-linecap:round;stroke-linejoin:round"></rect><path d="M215.59,311.24H443.34a0,0,0,0,1,0,0v17.51a8.48,8.48,0,0,1-8.48,8.48H224.08a8.48,8.48,0,0,1-8.48-8.48V311.24A0,0,0,0,1,215.59,311.24Z" style="fill:#fff;stroke:#263238;stroke-linecap:round;stroke-linejoin:round"></path><rect x="227.05" y="180.4" width="204.84" height="118.15" style="fill:#263238"></rect><g style="clip-path:url(#freepik--clip-path-2--inject-14)"><polygon points="431.89 215.73 289.87 298.55 431.89 298.55 431.89 215.73" style="fill:#fff;opacity:0.30000000000000004"></polygon></g><rect x="227.05" y="180.4" width="204.84" height="118.15" style="fill:none;stroke:#fff;stroke-linecap:round;stroke-linejoin:round"></rect><rect x="292.64" y="370.13" width="73.68" height="3.36" style="fill:#263238;stroke:#263238;stroke-linecap:round;stroke-linejoin:round"></rect></g><g id="freepik--character-2--inject-14"><path d="M343.66,238s-3.36-2-3.14-5.27,8-5.67,14.43-4.33,8.95,9.43,8.12,13.91-.65,7.61,3.41,10.87,11.17,13,7.75,17.39-7.26,5.72-4.67,9.53,2.83,8-1.11,10.56a11.47,11.47,0,0,1-12.49.57c-4.12-2.36-8-10.14-6.45-15.61s-1.09-22-1.72-27.87S346.22,238.48,343.66,238Z" style="fill:#92E3A9"></path><path d="M343.74,275.45l-1.56,7-9.61,15.84-2.34,1.81a31.87,31.87,0,0,0-1,4.16c0,.78.52.78,1.3.52s1-1.3,1.82-1.56,2.5-1.34,2.76-2.38,1.09-3.42,1.09-3.42L347.63,284s1.3-8.3-.78-10.12S343.74,275.45,343.74,275.45Z" style="fill:#fff;stroke:#263238;stroke-linecap:round;stroke-linejoin:round"></path><path d="M343.74,275.45l-1.56,7-3.91,6.44,3.1,2.44,6.26-7.33s1.3-8.3-.78-10.12S343.74,275.45,343.74,275.45Z" style="fill:#92E3A9;stroke:#263238;stroke-linecap:round;stroke-linejoin:round"></path><path d="M345.41,250.35a8.11,8.11,0,0,1,1.37,4.63c-.17,2.45-4.22,6.71-5.78,10.5s-.7,6.43.24,7.92,2.58,3.94,2.62,5.24.4,3.66.4,3.66,4.3,1.59,13.18-1.3c0,0,2.27-19.82,2.19-22.41s-3.45-4.52-5.11-4.89-3.53-1.54-4.09-2.88a12.13,12.13,0,0,1-.73-2.51Z" style="fill:#92E3A9;stroke:#263238;stroke-linecap:round;stroke-linejoin:round"></path><path d="M353.54,253.39a5.61,5.61,0,0,1-3.11-2.57,12.13,12.13,0,0,1-.73-2.51l-4.29,2a8.11,8.11,0,0,1,1.37,4.63c-.08,1.12-1,2.61-2,4.26.64,1.68,1.36,2.1,3.74.61A11.5,11.5,0,0,0,353.54,253.39Z" style="fill:#fff;stroke:#263238;stroke-linecap:round;stroke-linejoin:round"></path><path d="M346.39,233s-2.85,2-3.45,3.84-2.58,6.14-2.38,7.72.19,6.47,2,7.07,8.06-2.75,9.12-4.41a12.48,12.48,0,0,0,.39-10.37C350.37,232.47,347.29,231.48,346.39,233Z" style="fill:#fff;stroke:#263238;stroke-linecap:round;stroke-linejoin:round"></path><path d="M345.88,231.38s3.51,3.86,3.66,8.59-2.09,9.78,1.75,13.5,10.84.28,10.84.28a13.94,13.94,0,0,1-4.59-8.82c-.42-5.38-1.34-10.33-3.74-12.06S346.86,230.82,345.88,231.38Z" style="fill:#92E3A9"></path><path d="M347.69,231.17a5.12,5.12,0,0,1,5.56,3.15c1.66,3.89-1.3,11.3.37,15.19s12.59,6.67,12.78,13.71-5.56,8.33-5.19,13,5.37,5,5.56,9.27a5.93,5.93,0,0,1-3.34,5.74" style="fill:none;stroke:#fff;stroke-linecap:round;stroke-linejoin:round;stroke-width:0.5px"></path><path d="M350.28,230.61s7.41-1.66,9.82,5-2.78,13.16-.74,15.94,11.11,6.66,11.86,13.33-8.34,7.78-6.3,12.23,7.59,7,5.18,10.74" style="fill:none;stroke:#fff;stroke-linecap:round;stroke-linejoin:round;stroke-width:0.5px"></path><path d="M345.54,365.76a17.83,17.83,0,0,1-1.21,4.45c-.74,1.25-3.21,3.29-3.24,3.8s.34.67,1,.72A8.32,8.32,0,0,0,346.6,373a14.59,14.59,0,0,0,2-3c.43-.49,2-1,2.23-2.18s-1.34-3.21-1.34-3.21Z" style="fill:#92E3A9;stroke:#263238;stroke-linecap:round;stroke-linejoin:round"></path><path d="M372.87,365.25a17.68,17.68,0,0,1-1.22,4.46c-.73,1.25-3.2,3.28-3.24,3.8s.35.67,1,.71a8.21,8.21,0,0,0,4.53-1.76,14.58,14.58,0,0,0,2-3c.42-.49,2-1,2.22-2.18s-1.33-3.2-1.33-3.2Z" style="fill:#92E3A9;stroke:#263238;stroke-linecap:round;stroke-linejoin:round"></path><path d="M369.84,338c-1.81-5.07-4.52-9.25-5-12.27-1.23-8.12.66-18.72-1.18-26.8-1.19-5.18-2.44-13.82-6.24-17.88,0,0-4.42,2.16-13.18,1.3,0,0-4.43,19.14-4.75,29.62S343,348.47,343.89,354s1.65,11.78,1.65,11.78l4-1.16s1.88-12.68,1.55-20.76c-.42-10.68-1.08-20.18-.43-24s.37-13.62.37-13.62,1.24,6.29,2,9.6c0,0,1.28,11.19,2.4,14.26s17.5,35,17.5,35l3.92-1S371.65,343,369.84,338Z" style="fill:#263238;stroke:#263238;stroke-linecap:round;stroke-linejoin:round"></path><path d="M355.69,265.25l4.49,6.79,4.4,7.11s-2.53,9.69-4.1,14.88l4.41,1.47c7.24-7.8,6-16.59,6.43-17.26s-7.85-15-7.85-15-1.13-5.79-5.34-7.52-4.73,1-4.73,1" style="fill:#92E3A9;stroke:#263238;stroke-linecap:round;stroke-linejoin:round"></path><path d="M360.48,294l-3.8,8.74a7,7,0,0,0-2.36.88c-.49.5-.86,1.63-1.72,2.5s.51,2,.51,2l1.23-1.75-1.21,4.23a4.15,4.15,0,0,0,1.73-1,21.82,21.82,0,0,1,3.1-2.14c1.48-1,1.71-4.24,1.71-4.24l5.22-7.74Z" style="fill:#fff;stroke:#263238;stroke-linecap:round;stroke-linejoin:round"></path><path d="M332.57,298.3l-2.79.84a18.39,18.39,0,0,0-1.24,3.58c0,.78,1.55.31,1.55-.16a3.33,3.33,0,0,1,.16-.93,2.27,2.27,0,0,0,2.49-1.4" style="fill:#fff;stroke:#263238;stroke-linecap:round;stroke-linejoin:round"></path></g><g id="freepik--device-3--inject-14"><path d="M151.51,244.51H315.69A10.46,10.46,0,0,1,326.14,255V364.65a0,0,0,0,1,0,0H141.06a0,0,0,0,1,0,0V255A10.46,10.46,0,0,1,151.51,244.51Z" style="fill:#fff;stroke:#263238;stroke-linecap:round;stroke-linejoin:round"></path><rect x="148.56" y="253.9" width="170.07" height="96.11" style="fill:#263238"></rect><g style="clip-path:url(#freepik--clip-path-3--inject-14)"><polygon points="318.63 350.01 318.63 267.97 177.96 350.01 318.63 350.01" style="fill:#fff;opacity:0.30000000000000004"></polygon></g><rect x="148.56" y="253.9" width="170.07" height="96.11" style="fill:none;stroke:#263238;stroke-linecap:round;stroke-linejoin:round"></rect><rect x="170.42" y="358.87" width="127.2" height="6.27" style="fill:#263238;stroke:#263238;stroke-linecap:round;stroke-linejoin:round"></rect><rect x="170.42" y="361.88" width="127.2" height="3.25" style="fill:#fff;stroke:#263238;stroke-linecap:round;stroke-linejoin:round"></rect><path d="M126.09,368.85s2.09,2.55,8.35,4.64H333.6s4.65-1.16,6.73-4.41Z" style="fill:#263238;stroke:#263238;stroke-linecap:round;stroke-linejoin:round"></path><rect x="125.66" y="364.27" width="215.12" height="4.88" rx="1.89" style="fill:#fff;stroke:#263238;stroke-linecap:round;stroke-linejoin:round"></rect><circle cx="233.56" cy="248.15" r="1.62" style="fill:#263238"></circle><path d="M142.8,278.32h0a.46.46,0,0,1-.46-.46V264.39a.46.46,0,0,1,.46-.46h0a.47.47,0,0,1,.47.46v13.47A.47.47,0,0,1,142.8,278.32Z" style="fill:#263238;stroke:#fff;stroke-miterlimit:10;stroke-width:0.691688px"></path></g><g id="freepik--character-1--inject-14"><polygon points="84.17 366.53 90.23 371.64 90.23 372.78 79.05 372.78 79.83 367.29 84.17 366.53" style="fill:#92E3A9;stroke:#263238;stroke-linecap:round;stroke-linejoin:round"></polygon><path d="M97.12,233.41s.79-1.58,1.44-.13a6.83,6.83,0,0,1,.13,4.58c-.39.66-2,1.57-2,.92S97.12,233.41,97.12,233.41Z" style="fill:#fff;stroke:#263238;stroke-linecap:round;stroke-linejoin:round"></path><path d="M84.43,236.46s-1.19-1.29-1.42.28a7,7,0,0,0,1.16,4.44c.56.52,2.33,1,2.14.33S84.43,236.46,84.43,236.46Z" style="fill:#fff;stroke:#263238;stroke-linecap:round;stroke-linejoin:round"></path><path d="M109.5,246l-13.31,1.74s-4,.3-5.71.3-13.08,2.78-13.08,2.78,4.52,13.65,4.52,14.83,5.52,16.08,5.52,16.08,0,2.93.88,3.95,8.93,1.76,13.32.73,5.71-3.36,6-4.24-.06-6.29.08-8.63C107.89,270.88,108.9,251.23,109.5,246Z" style="fill:#92E3A9;stroke:#263238;stroke-linecap:round;stroke-linejoin:round"></path><path d="M94.2,244.85a30,30,0,0,1,3.08,1.9c.44.44,2.63,7.91,2.63,7.91L95.23,252l-5.13,4.1s-1.9-5.56-1.75-7.61a5,5,0,0,1,2.05-3.37Z" style="fill:#fff;stroke:#263238;stroke-linecap:round;stroke-linejoin:round"></path><polygon points="94.79 244.26 94.94 255.83 89.67 245.29 94.79 244.26" style="fill:#fff;stroke:#263238;stroke-linecap:round;stroke-linejoin:round"></polygon><path d="M84.53,237.32c.85,4.83,4.85,11,8.36,10.37s5.18-7.77,4.33-12.6-4.37-8.25-7.88-7.63S83.68,232.48,84.53,237.32Z" style="fill:#fff;stroke:#263238;stroke-linecap:round;stroke-linejoin:round"></path><path d="M97.46,236.36s-1.39.44-1.2-.08a5.62,5.62,0,0,0-.38-2.15,2.34,2.34,0,0,1-.89-.88c-.41-.67.13-1.8,0-2.66s-4.29,1.64-5,1.77-4.91-.18-4.91-.18,1.17,2.46.79,2.82-.44,1.7-.44,1.7a13.28,13.28,0,0,1,.76,2.68c-.06.45-.87.89-1.09.48s-.87-4.13-.87-4.13-1,.32-1.34-1.69,0-6.65,1.88-7.86,6.44-2,8.48-1.34,4.14,5,4,6.69A30.64,30.64,0,0,0,97.46,236.36Z" style="fill:#263238;stroke:#263238;stroke-linecap:round;stroke-linejoin:round"></path><polygon points="90.23 371.64 90.23 372.78 79.05 372.78 79.28 371.14 89.63 371.14 90.23 371.64" style="fill:#fff;stroke:#263238;stroke-linecap:round;stroke-linejoin:round"></polygon><polygon points="111.33 366.06 118.4 371.64 118.4 372.78 106.52 372.78 107.3 366.24 111.33 366.06" style="fill:#92E3A9;stroke:#263238;stroke-linecap:round;stroke-linejoin:round"></polygon><polygon points="118.4 371.64 118.4 372.78 106.52 372.78 106.75 371.14 117.8 371.14 118.4 371.64" style="fill:#fff;stroke:#263238;stroke-linecap:round;stroke-linejoin:round"></polygon><path d="M107.64,282.19s3.16,17.21,4.21,24.73,1.93,28.17,1.93,35.7-2.45,23.44-2.45,23.44l-4,.18s-3.5-41.64-4.55-44.79-3.5-12.25-3.5-12.25-2.8,22.57-3.15,25.19S84,366.94,84,366.94l-4.2.35s6.82-33.25,7-35.52-1.4-33.95-.52-39.54,2-7.5,2-7.5S100.71,286.47,107.64,282.19Z" style="fill:#263238;stroke:#263238;stroke-linecap:round;stroke-linejoin:round"></path><path d="M77.4,250.84l-2.91,27.82a2.57,2.57,0,0,0,1.61,2.65l24.22,9.62.26-3.63L82.14,275l.8-6.59Z" style="fill:#92E3A9;stroke:#263238;stroke-linecap:round;stroke-linejoin:round"></path><polygon points="100.58 287.3 103.95 286.26 107.58 288.34 107.58 291.97 102.65 291.71 100.52 290.31 100.58 287.3" style="fill:#fff;stroke:#263238;stroke-linecap:round;stroke-linejoin:round"></polygon><path d="M109.5,246l21.57,13.41-5.18,3.15L108.5,259S108.75,250.85,109.5,246Z" style="fill:#92E3A9;stroke:#263238;stroke-linecap:round;stroke-linejoin:round"></path><path d="M125.89,262.58a40.19,40.19,0,0,0,7.92,3.15c3.12.63,13.84,1.45,13.84,1.45l1.81-3s-10.53-3.76-14.2-4.65-7.77-2.25-7.77-2.25" style="fill:#92E3A9;stroke:#263238;stroke-linecap:round;stroke-linejoin:round"></path><path d="M149.46,264.18s2.34-.93,3-.63,5.23,3.59,5.23,3.59.49,1.58-.53,2.2-3.77,0-4.38.1-5.12-2.26-5.12-2.26Z" style="fill:#fff;stroke:#263238;stroke-linecap:round;stroke-linejoin:round"></path><path d="M152.45,263.55l3.2,3s.67,1.47-.54,1a12.36,12.36,0,0,1-2.44-1.32L151,267l-.89.07" style="fill:#fff;stroke:#263238;stroke-linecap:round;stroke-linejoin:round"></path></g><g id="freepik--device-2--inject-14"><rect x="105.56" y="267.75" width="66.3" height="105.74" rx="11.18" transform="translate(277.42 641.24) rotate(180)" style="fill:#fff;stroke:#263238;stroke-linecap:round;stroke-linejoin:round"></rect><rect x="109.36" y="271.35" width="58.69" height="98.53" rx="7.39" style="fill:#263238"></rect><g style="clip-path:url(#freepik--clip-path-4--inject-14)"><path d="M109.36,340.2v22.54a7.14,7.14,0,0,0,7.14,7.14h44.41a7.13,7.13,0,0,0,7.14-7.14V306Z" style="fill:#fff;opacity:0.30000000000000004"></path></g><rect x="109.36" y="271.35" width="58.69" height="98.53" rx="7.39" style="fill:none;stroke:#263238;stroke-linecap:round;stroke-linejoin:round"></rect><path d="M171.25,356.83V360a.31.31,0,0,0,.3.31h0a.31.31,0,0,0,.31-.31v-3.14a.3.3,0,0,0-.31-.3h0A.3.3,0,0,0,171.25,356.83Z" style="fill:#263238;stroke:#263238;stroke-linecap:round;stroke-linejoin:round"></path><path d="M171.25,344.78v6.47a.29.29,0,0,0,.3.26h0a.29.29,0,0,0,.31-.26v-6.47a.29.29,0,0,0-.31-.26h0A.29.29,0,0,0,171.25,344.78Z" style="fill:#263238;stroke:#263238;stroke-linecap:round;stroke-linejoin:round"></path></g><g id="freepik--device-1--inject-14"><rect x="73.41" y="300.91" width="38.43" height="72.58" rx="7.67" style="fill:#fff;stroke:#263238;stroke-linecap:round;stroke-linejoin:round"></rect><rect x="75.12" y="308.88" width="35.01" height="56.64" style="fill:#263238"></rect><g style="clip-path:url(#freepik--clip-path-5--inject-14)"><polygon points="110.13 346.49 77.49 365.52 110.13 365.52 110.13 346.49" style="fill:#fff;opacity:0.30000000000000004"></polygon></g><rect x="75.12" y="308.88" width="35.01" height="56.64" style="fill:none;stroke:#263238;stroke-linecap:round;stroke-linejoin:round"></rect><path d="M96.43,304.91H88.81a.51.51,0,0,1-.51-.51h0a.51.51,0,0,1,.51-.52h7.62a.51.51,0,0,1,.51.52h0A.51.51,0,0,1,96.43,304.91Z" style="fill:#263238"></path><path d="M94.7,368.72a2.08,2.08,0,1,0-2.08,2.07A2.08,2.08,0,0,0,94.7,368.72Z" style="fill:#fff;stroke:#263238;stroke-miterlimit:10;stroke-width:0.704333px"></path><rect x="91.57" y="367.67" width="2.1" height="2.1" style="fill:#263238"></rect></g></svg>